<svg xmlns="http://www.w3.org/2000/svg">
    <symbol id="logo">
        <path d="M38.9858 11.25L19.5002 0L0.0146484 11.25V33.75L38.9858 11.25Z" fill="#EC5EB7"/>
        <path d="M3.00005 34.5L22.4856 45.75L41.9712 34.5L41.9712 12L3.00005 34.5Z" fill="#B783EB"/>
    </symbol>
    
    <symbol id="home">
        <path d="M12.0028 14.62C13.2361 14.62 14.24 15.6154 14.24 16.8389V19.9857C14.24 20.2486 14.4511 20.4594 14.7215 20.4655H16.674C18.2126 20.4655 19.4634 19.2317 19.4634 17.7157V8.79095C19.4562 8.26921 19.2073 7.77817 18.7801 7.45183L12.0263 2.07287C11.1198 1.35574 9.85156 1.35574 8.9419 2.07491L2.23419 7.44979C1.79063 7.78635 1.54171 8.2774 1.53659 8.80834V17.7157C1.53659 19.2317 2.78737 20.4655 4.326 20.4655H6.29693C6.57454 20.4655 6.7999 20.2455 6.7999 19.9755C6.7999 19.9161 6.80707 19.8568 6.81937 19.8005V16.8389C6.81937 15.6226 7.81712 14.6282 9.04127 14.62H12.0028ZM16.674 22H14.7031C13.5742 21.9734 12.7035 21.0885 12.7035 19.9857V16.8389C12.7035 16.4614 12.389 16.1545 12.0028 16.1545H9.04639C8.66839 16.1566 8.35595 16.4645 8.35595 16.8389V19.9755C8.35595 20.0522 8.34571 20.1259 8.32419 20.1954C8.21356 21.2082 7.34693 22 6.29693 22H4.326C1.94019 22 0 20.0778 0 17.7157V8.80118C0.0102439 7.78431 0.479415 6.85337 1.28971 6.24059L7.9841 0.874926C9.45819 -0.291301 11.5121 -0.291301 12.9831 0.87288L19.7257 6.24366C20.5175 6.84621 20.9867 7.7751 21 8.77969V17.7157C21 20.0778 19.0598 22 16.674 22Z" />
    </symbol>

    <symbol id="google" viewBox="0 0 48 48">
        <path fill="#FFC107" d="M43.611,20.083H42V20H24v8h11.303c-1.649,4.657-6.08,8-11.303,8c-6.627,0-12-5.373-12-12c0-6.627,5.373-12,12-12c3.059,0,5.842,1.154,7.961,3.039l5.657-5.657C34.046,6.053,29.268,4,24,4C12.955,4,4,12.955,4,24c0,11.045,8.955,20,20,20c11.045,0,20-8.955,20-20C44,22.659,43.862,21.35,43.611,20.083z"/>
        <path fill="#FF3D00" d="M6.306,14.691l6.571,4.819C14.655,15.108,18.961,12,24,12c3.059,0,5.842,1.154,7.961,3.039l5.657-5.657C34.046,6.053,29.268,4,24,4C16.318,4,9.656,8.337,6.306,14.691z"/>
        <path fill="#4CAF50" d="M24,44c5.166,0,9.86-1.977,13.409-5.192l-6.19-5.238C29.211,35.091,26.715,36,24,36c-5.202,0-9.619-3.317-11.283-7.946l-6.522,5.025C9.505,39.556,16.227,44,24,44z"/>
        <path fill="#1976D2" d="M43.611,20.083H42V20H24v8h11.303c-0.792,2.237-2.231,4.166-4.087,5.571c0.001-0.001,0.002-0.001,0.003-0.002l6.19,5.238C36.971,39.205,44,34,44,24C44,22.659,43.862,21.35,43.611,20.083z"/>
    </symbol>

    <symbol id="log-out">
        <path d="M11.6915 0C9.24551 0 7.25551 1.99 7.25551 4.436V5.368C7.25551 5.782 7.59151 6.118 8.00551 6.118C8.41951 6.118 8.75551 5.782 8.75551 5.368V4.436C8.75551 2.816 10.0725 1.5 11.6915 1.5H16.5665C18.1835 1.5 19.4995 2.816 19.4995 4.436V15.565C19.4995 17.184 18.1835 18.5 16.5665 18.5H11.6805C10.0685 18.5 8.75551 17.188 8.75551 15.576V14.633C8.75551 14.219 8.41951 13.883 8.00551 13.883C7.59151 13.883 7.25551 14.219 7.25551 14.633V15.576C7.25551 18.016 9.24151 20 11.6805 20H16.5665C19.0105 20 20.9995 18.011 20.9995 15.565V4.436C20.9995 1.99 19.0105 0 16.5665 0H11.6915ZM3.61141 6.554L0.683409 9.469C0.657288 9.49492 0.633898 9.52187 0.612492 9.55039L0.683409 9.469C0.647978 9.50393 0.61647 9.5421 0.589134 9.5828C0.577101 9.60125 0.565495 9.62032 0.554739 9.63992C0.546011 9.65523 0.537977 9.67122 0.530531 9.68746C0.524218 9.70182 0.518156 9.71618 0.512541 9.73077C0.505001 9.74977 0.4984 9.76931 0.492609 9.78911C0.488245 9.8047 0.484234 9.82026 0.480719 9.836C0.476252 9.8551 0.472733 9.87432 0.469967 9.89368C0.468401 9.90627 0.466869 9.91947 0.465687 9.93276C0.463396 9.95557 0.46241 9.97774 0.46241 10L0.467508 10.062L0.469561 10.1017C0.469791 10.1034 0.470026 10.1051 0.470268 10.1068L0.46241 10C0.46241 10.0555 0.468555 10.1105 0.480503 10.1639C0.484234 10.1797 0.488245 10.1953 0.492735 10.2107C0.498398 10.2307 0.505001 10.2502 0.512396 10.2695C0.518158 10.2838 0.524218 10.2982 0.530704 10.3123C0.537977 10.3288 0.546009 10.3448 0.554617 10.3605C0.565495 10.3797 0.577101 10.3988 0.589508 10.4172C0.596527 10.4282 0.604227 10.439 0.612226 10.4497C0.636036 10.481 0.66198 10.5104 0.690054 10.5377L3.61141 13.447C3.75741 13.593 3.94941 13.666 4.14041 13.666C4.33241 13.666 4.52541 13.593 4.67141 13.445C4.96341 13.151 4.96241 12.677 4.66941 12.385L3.02951 10.75H13.2537C13.6677 10.75 14.0037 10.414 14.0037 10C14.0037 9.586 13.6677 9.25 13.2537 9.25H3.02751L4.66941 7.616C4.96241 7.324 4.96441 6.85 4.67141 6.556C4.37941 6.262 3.90541 6.262 3.61141 6.554Z" />
    </symbol>
</svg>
