<svg xmlns="http://www.w3.org/2000/svg">
    <symbol id="logo" viewBox="0 0 42 46">
        <path d="M38.9858 11.25L19.5002 0L0.0146484 11.25V33.75L38.9858 11.25Z" fill="#EC5EB7"/>
        <path d="M3.00005 34.5L22.4856 45.75L41.9712 34.5L41.9712 12L3.00005 34.5Z" fill="#B783EB"/>
    </symbol>
    
    <symbol id="home">
        <path d="M12.0028 14.62C13.2361 14.62 14.24 15.6154 14.24 16.8389V19.9857C14.24 20.2486 14.4511 20.4594 14.7215 20.4655H16.674C18.2126 20.4655 19.4634 19.2317 19.4634 17.7157V8.79095C19.4562 8.26921 19.2073 7.77817 18.7801 7.45183L12.0263 2.07287C11.1198 1.35574 9.85156 1.35574 8.9419 2.07491L2.23419 7.44979C1.79063 7.78635 1.54171 8.2774 1.53659 8.80834V17.7157C1.53659 19.2317 2.78737 20.4655 4.326 20.4655H6.29693C6.57454 20.4655 6.7999 20.2455 6.7999 19.9755C6.7999 19.9161 6.80707 19.8568 6.81937 19.8005V16.8389C6.81937 15.6226 7.81712 14.6282 9.04127 14.62H12.0028ZM16.674 22H14.7031C13.5742 21.9734 12.7035 21.0885 12.7035 19.9857V16.8389C12.7035 16.4614 12.389 16.1545 12.0028 16.1545H9.04639C8.66839 16.1566 8.35595 16.4645 8.35595 16.8389V19.9755C8.35595 20.0522 8.34571 20.1259 8.32419 20.1954C8.21356 21.2082 7.34693 22 6.29693 22H4.326C1.94019 22 0 20.0778 0 17.7157V8.80118C0.0102439 7.78431 0.479415 6.85337 1.28971 6.24059L7.9841 0.874926C9.45819 -0.291301 11.5121 -0.291301 12.9831 0.87288L19.7257 6.24366C20.5175 6.84621 20.9867 7.7751 21 8.77969V17.7157C21 20.0778 19.0598 22 16.674 22Z" />
    </symbol>

    <symbol id="google" viewBox="0 0 48 48">
        <path fill="#FFC107" d="M43.611,20.083H42V20H24v8h11.303c-1.649,4.657-6.08,8-11.303,8c-6.627,0-12-5.373-12-12c0-6.627,5.373-12,12-12c3.059,0,5.842,1.154,7.961,3.039l5.657-5.657C34.046,6.053,29.268,4,24,4C12.955,4,4,12.955,4,24c0,11.045,8.955,20,20,20c11.045,0,20-8.955,20-20C44,22.659,43.862,21.35,43.611,20.083z"/>
        <path fill="#FF3D00" d="M6.306,14.691l6.571,4.819C14.655,15.108,18.961,12,24,12c3.059,0,5.842,1.154,7.961,3.039l5.657-5.657C34.046,6.053,29.268,4,24,4C16.318,4,9.656,8.337,6.306,14.691z"/>
        <path fill="#4CAF50" d="M24,44c5.166,0,9.86-1.977,13.409-5.192l-6.19-5.238C29.211,35.091,26.715,36,24,36c-5.202,0-9.619-3.317-11.283-7.946l-6.522,5.025C9.505,39.556,16.227,44,24,44z"/>
        <path fill="#1976D2" d="M43.611,20.083H42V20H24v8h11.303c-0.792,2.237-2.231,4.166-4.087,5.571c0.001-0.001,0.002-0.001,0.003-0.002l6.19,5.238C36.971,39.205,44,34,44,24C44,22.659,43.862,21.35,43.611,20.083z"/>
    </symbol>

    <symbol id="log-out">
        <path d="M11.6915 0C9.24551 0 7.25551 1.99 7.25551 4.436V5.368C7.25551 5.782 7.59151 6.118 8.00551 6.118C8.41951 6.118 8.75551 5.782 8.75551 5.368V4.436C8.75551 2.816 10.0725 1.5 11.6915 1.5H16.5665C18.1835 1.5 19.4995 2.816 19.4995 4.436V15.565C19.4995 17.184 18.1835 18.5 16.5665 18.5H11.6805C10.0685 18.5 8.75551 17.188 8.75551 15.576V14.633C8.75551 14.219 8.41951 13.883 8.00551 13.883C7.59151 13.883 7.25551 14.219 7.25551 14.633V15.576C7.25551 18.016 9.24151 20 11.6805 20H16.5665C19.0105 20 20.9995 18.011 20.9995 15.565V4.436C20.9995 1.99 19.0105 0 16.5665 0H11.6915ZM3.61141 6.554L0.683409 9.469C0.657288 9.49492 0.633898 9.52187 0.612492 9.55039L0.683409 9.469C0.647978 9.50393 0.61647 9.5421 0.589134 9.5828C0.577101 9.60125 0.565495 9.62032 0.554739 9.63992C0.546011 9.65523 0.537977 9.67122 0.530531 9.68746C0.524218 9.70182 0.518156 9.71618 0.512541 9.73077C0.505001 9.74977 0.4984 9.76931 0.492609 9.78911C0.488245 9.8047 0.484234 9.82026 0.480719 9.836C0.476252 9.8551 0.472733 9.87432 0.469967 9.89368C0.468401 9.90627 0.466869 9.91947 0.465687 9.93276C0.463396 9.95557 0.46241 9.97774 0.46241 10L0.467508 10.062L0.469561 10.1017C0.469791 10.1034 0.470026 10.1051 0.470268 10.1068L0.46241 10C0.46241 10.0555 0.468555 10.1105 0.480503 10.1639C0.484234 10.1797 0.488245 10.1953 0.492735 10.2107C0.498398 10.2307 0.505001 10.2502 0.512396 10.2695C0.518158 10.2838 0.524218 10.2982 0.530704 10.3123C0.537977 10.3288 0.546009 10.3448 0.554617 10.3605C0.565495 10.3797 0.577101 10.3988 0.589508 10.4172C0.596527 10.4282 0.604227 10.439 0.612226 10.4497C0.636036 10.481 0.66198 10.5104 0.690054 10.5377L3.61141 13.447C3.75741 13.593 3.94941 13.666 4.14041 13.666C4.33241 13.666 4.52541 13.593 4.67141 13.445C4.96341 13.151 4.96241 12.677 4.66941 12.385L3.02951 10.75H13.2537C13.6677 10.75 14.0037 10.414 14.0037 10C14.0037 9.586 13.6677 9.25 13.2537 9.25H3.02751L4.66941 7.616C4.96241 7.324 4.96441 6.85 4.67141 6.556C4.37941 6.262 3.90541 6.262 3.61141 6.554Z" />
    </symbol>

    <symbol id="loader" viewBox="0 0 65 65">
        <path d="M63.04 39.741c-4.274 17.143-21.638 27.575-38.783 23.301C7.12 58.768-3.313 41.404.962 24.262 5.234 7.117 22.597-3.317 39.737.957c17.144 4.274 27.576 21.64 23.302 38.784z" fill="#f7931a"/>
        <path d="M46.11 27.441c.636-4.258-2.606-6.547-7.039-8.074l1.438-5.768-3.512-.875-1.4 5.616c-.922-.23-1.87-.447-2.812-.662l1.41-5.653-3.509-.875-1.439 5.766c-.764-.174-1.514-.346-2.242-.527l.004-.018-4.842-1.209-.934 3.75s2.605.597 2.55.634c1.422.355 1.68 1.296 1.636 2.042l-1.638 6.571c.098.025.225.061.365.117l-.37-.092-2.297 9.205c-.174.432-.615 1.08-1.609.834.035.051-2.552-.637-2.552-.637l-1.743 4.02 4.57 1.139c.85.213 1.683.436 2.502.646l-1.453 5.835 3.507.875 1.44-5.772c.957.26 1.887.5 2.797.726L27.504 50.8l3.511.875 1.453-5.823c5.987 1.133 10.49.676 12.383-4.738 1.527-4.36-.075-6.875-3.225-8.516 2.294-.531 4.022-2.04 4.483-5.157zM38.087 38.69c-1.086 4.36-8.426 2.004-10.807 1.412l1.928-7.729c2.38.594 10.011 1.77 8.88 6.317zm1.085-11.312c-.99 3.966-7.1 1.951-9.083 1.457l1.748-7.01c1.983.494 8.367 1.416 7.335 5.553z" fill="#ffffff"/>
    </symbol>

    <symbol id="angle">
      <path
        d="M6.02507 6.66663L0.882254 -4.06106e-05L11.168 -4.14848e-05L6.02507 6.66663Z"
      />
    </symbol>

    <symbol id="settings">
        <path d="M10.2673 0.000488281C10.9833 0.000488281 11.6793 0.294488 12.1783 0.805488C12.6763 1.31949 12.9513 2.02449 12.9303 2.73949C12.9323 2.90049 12.9853 3.08649 13.0813 3.24949C13.2403 3.51949 13.4913 3.70949 13.7893 3.78749C14.0873 3.86149 14.3993 3.82149 14.6643 3.66449C15.9443 2.93349 17.5733 3.37149 18.3043 4.64149L18.9273 5.72049C18.9433 5.74949 18.9573 5.77749 18.9693 5.80649C19.6313 7.05749 19.1893 8.63249 17.9593 9.35149C17.7803 9.45449 17.6353 9.59849 17.5353 9.77249C17.3803 10.0415 17.3373 10.3615 17.4153 10.6555C17.4953 10.9555 17.6863 11.2045 17.9553 11.3585C18.5623 11.7075 19.0153 12.2955 19.1963 12.9745C19.3773 13.6525 19.2783 14.3885 18.9253 14.9955L18.2613 16.1015C17.5303 17.3575 15.9013 17.7925 14.6343 17.0605C14.4653 16.9635 14.2703 16.9105 14.0763 16.9055H14.0703C13.7813 16.9055 13.4843 17.0285 13.2683 17.2435C13.0493 17.4625 12.9293 17.7545 12.9313 18.0645C12.9243 19.5335 11.7293 20.7215 10.2673 20.7215H9.01432C7.54532 20.7215 6.35032 19.5275 6.35032 18.0585C6.34832 17.8775 6.29632 17.6895 6.19932 17.5265C6.04232 17.2525 5.78832 17.0565 5.49532 16.9785C5.20432 16.9005 4.88532 16.9435 4.62332 17.0955C3.99532 17.4455 3.25632 17.5305 2.58032 17.3405C1.90532 17.1495 1.32232 16.6855 0.98032 16.0705L0.35532 14.9935C-0.37568 13.7255 0.0593197 12.1005 1.32532 11.3685C1.68432 11.1615 1.90732 10.7755 1.90732 10.3615C1.90732 9.94749 1.68432 9.56049 1.32532 9.35349C0.0583198 8.61749 -0.37568 6.98849 0.35432 5.72049L1.03232 4.60749C1.75332 3.35349 3.38332 2.91149 4.65432 3.64149C4.82732 3.74449 5.01532 3.79649 5.20632 3.79849C5.82932 3.79849 6.35032 3.28449 6.36032 2.65249C6.35632 1.95549 6.63132 1.28649 7.13232 0.781488C7.63532 0.277488 8.30332 0.000488281 9.01432 0.000488281H10.2673ZM10.2673 1.50049H9.01432C8.70432 1.50049 8.41432 1.62149 8.19532 1.83949C7.97732 2.05849 7.85832 2.34949 7.86032 2.65949C7.83932 4.12149 6.64432 5.29849 5.19732 5.29849C4.73332 5.29349 4.28632 5.16849 3.89832 4.93649C3.35332 4.62649 2.64132 4.81749 2.32232 5.37249L1.64532 6.48549C1.33532 7.02349 1.52532 7.73449 2.07732 8.05549C2.89632 8.52949 3.40732 9.41349 3.40732 10.3615C3.40732 11.3095 2.89632 12.1925 2.07532 12.6675C1.52632 12.9855 1.33632 13.6925 1.65432 14.2425L2.28532 15.3305C2.44132 15.6115 2.69632 15.8145 2.99132 15.8975C3.28532 15.9795 3.60932 15.9445 3.87932 15.7945C4.27632 15.5615 4.73832 15.4405 5.20232 15.4405C5.43132 15.4405 5.66032 15.4695 5.88432 15.5295C6.56032 15.7115 7.14732 16.1635 7.49532 16.7705C7.72132 17.1515 7.84632 17.5965 7.85032 18.0505C7.85032 18.7005 8.37232 19.2215 9.01432 19.2215H10.2673C10.9063 19.2215 11.4283 18.7035 11.4313 18.0645C11.4273 17.3585 11.7033 16.6875 12.2083 16.1825C12.7063 15.6845 13.4023 15.3855 14.0983 15.4055C14.5543 15.4165 14.9933 15.5395 15.3803 15.7595C15.9373 16.0785 16.6483 15.8885 16.9703 15.3385L17.6343 14.2315C17.7823 13.9765 17.8253 13.6565 17.7463 13.3615C17.6683 13.0665 17.4723 12.8105 17.2083 12.6595C16.5903 12.3035 16.1493 11.7295 15.9663 11.0415C15.7853 10.3665 15.8843 9.62949 16.2373 9.02249C16.4673 8.62249 16.8043 8.28549 17.2083 8.05349C17.7503 7.73649 17.9403 7.02749 17.6253 6.47549C17.6123 6.45349 17.6003 6.43049 17.5903 6.40649L17.0043 5.39049C16.6853 4.83549 15.9753 4.64449 15.4183 4.96149C14.8163 5.31749 14.1003 5.41949 13.4123 5.23849C12.7253 5.06049 12.1493 4.62549 11.7903 4.01149C11.5603 3.62749 11.4353 3.18049 11.4313 2.72549C11.4403 2.38349 11.3203 2.07649 11.1023 1.85149C10.8853 1.62749 10.5803 1.50049 10.2673 1.50049ZM9.64522 6.97459C11.5122 6.97459 13.0312 8.49459 13.0312 10.3616C13.0312 12.2286 11.5122 13.7466 9.64522 13.7466C7.77822 13.7466 6.25922 12.2286 6.25922 10.3616C6.25922 8.49459 7.77822 6.97459 9.64522 6.97459ZM9.64522 8.47459C8.60522 8.47459 7.75922 9.32159 7.75922 10.3616C7.75922 11.4016 8.60522 12.2466 9.64522 12.2466C10.6852 12.2466 11.5312 11.4016 11.5312 10.3616C11.5312 9.32159 10.6852 8.47459 9.64522 8.47459Z" />
    </symbol>

    <symbol id="reset" viewBox="0 0 50 50">
        <path d="M 25 5 C 14.351563 5 5.632813 13.378906 5.054688 23.890625 C 5.007813 24.609375 5.347656 25.296875 5.949219 25.695313 C 6.550781 26.089844 7.320313 26.132813 7.960938 25.804688 C 8.601563 25.476563 9.019531 24.828125 9.046875 24.109375 C 9.511719 15.675781 16.441406 9 25 9 C 29.585938 9 33.699219 10.925781 36.609375 14 L 34 14 C 33.277344 13.988281 32.609375 14.367188 32.246094 14.992188 C 31.878906 15.613281 31.878906 16.386719 32.246094 17.007813 C 32.609375 17.632813 33.277344 18.011719 34 18 L 40.261719 18 C 40.488281 18.039063 40.71875 18.039063 40.949219 18 L 44 18 L 44 8 C 44.007813 7.460938 43.796875 6.941406 43.414063 6.558594 C 43.03125 6.175781 42.511719 5.964844 41.96875 5.972656 C 40.867188 5.988281 39.984375 6.894531 40 8 L 40 11.777344 C 36.332031 7.621094 30.964844 5 25 5 Z M 43.03125 23.972656 C 41.925781 23.925781 40.996094 24.785156 40.953125 25.890625 C 40.488281 34.324219 33.558594 41 25 41 C 20.414063 41 16.304688 39.074219 13.390625 36 L 16 36 C 16.722656 36.011719 17.390625 35.632813 17.753906 35.007813 C 18.121094 34.386719 18.121094 33.613281 17.753906 32.992188 C 17.390625 32.367188 16.722656 31.988281 16 32 L 9.71875 32 C 9.507813 31.96875 9.296875 31.96875 9.085938 32 L 6 32 L 6 42 C 5.988281 42.722656 6.367188 43.390625 6.992188 43.753906 C 7.613281 44.121094 8.386719 44.121094 9.007813 43.753906 C 9.632813 43.390625 10.011719 42.722656 10 42 L 10 38.222656 C 13.667969 42.378906 19.035156 45 25 45 C 35.648438 45 44.367188 36.621094 44.945313 26.109375 C 44.984375 25.570313 44.800781 25.039063 44.441406 24.636719 C 44.078125 24.234375 43.570313 23.996094 43.03125 23.972656 Z"/>
    </symbol>

    <symbol id="arrow-right" viewBox="0 0 24 24">
        <polygon points="11.293 4.707 17.586 11 4 11 4 13 17.586 13 11.293 19.293 12.707 20.707 21.414 12 12.707 3.293 11.293 4.707"/>
    </symbol>

    <symbol id="circled-arrow" fill="none">
        <rect x="0.380952" y="-0.380952" width="15.2381" height="15.2381" rx="7.61905" transform="matrix(1 0 0 -1 0 15.7381)" stroke="var(--fill-color)" stroke-width="0.761905"/>
        <path d="M8.32325 11.8709C8.14472 12.0494 7.85528 12.0494 7.67675 11.8709L4.76751 8.96162C4.58899 8.78309 4.58899 8.49364 4.76751 8.31512C4.94604 8.13659 5.23548 8.13659 5.41401 8.31512L8 10.9011L10.586 8.31512C10.7645 8.13659 11.054 8.13659 11.2325 8.31512C11.411 8.49364 11.411 8.78309 11.2325 8.96162L8.32325 11.8709ZM7.54286 5.45237C7.54286 5.1999 7.74753 4.99523 8 4.99523C8.25247 4.99523 8.45714 5.1999 8.45714 5.45237L7.54286 5.45237ZM7.54286 11.5476L7.54286 5.45237L8.45714 5.45237L8.45714 11.5476L7.54286 11.5476Z" fill="var(--fill-color)"/>
    </symbol>
</svg>